<svg id="Layer_1" data-name="Layer 1" xmlns="http://www.w3.org/2000/svg" viewBox="0 0 593.89 383.14"><defs><style>.cls-1{fill:#7d8dff;}.cls-2{fill:#ccc;}.cls-3{fill:#c6cef7;}</style></defs><title>car</title><polygon class="cls-1" points="149.76 208.18 149.76 58.22 442.4 58.22 442.4 208.18 593.89 208.18 593.89 319.88 0 319.88 0 208.18 149.76 208.18"/><circle class="cls-2" cx="108.02" cy="319.88" r="63.26"/><circle class="cls-2" cx="499.73" cy="316.94" r="63.26"/><path class="cls-1" d="M252.63,405.89c0-117.89,95.57-213.46,213.46-213.46S679.54,288,679.54,405.89" transform="translate(-166.56 -192.43)"/><path class="cls-3" d="M634.55,400.09s-.91-96.53-90.16-139.33V400.09Z" transform="translate(-166.56 -192.43)"/><path class="cls-3" d="M526.18,400.09V250.65S407,201.43,337.84,304.47c-27.49,41-33,95.62-33,95.62Z" transform="translate(-166.56 -192.43)"/></svg>