<svg id="Layer_1" data-name="Layer 1" xmlns="http://www.w3.org/2000/svg" viewBox="0 0 598.36 388.24"><defs><style>.cls-1{fill:#fff;}.cls-2{fill:none;stroke:#fff;stroke-miterlimit:10;stroke-width:14px;}</style></defs><title>hoop</title><rect class="cls-1" width="598.36" height="47.54"/><path class="cls-2" d="M215.89,301.81s151.17,129.9,149.71,345.65" transform="translate(-152.66 -259.27)"/><path class="cls-2" d="M700.26,301.81S549.08,431.72,550.55,647.47" transform="translate(-152.66 -259.27)"/><path class="cls-2" d="M350.92,295.41s-15.39,56.33-70.07,82.47" transform="translate(-152.66 -259.27)"/><path class="cls-2" d="M424.3,295.41s.38,86.95-108.42,141.81" transform="translate(-152.66 -259.27)"/><path class="cls-2" d="M518.24,301.81S528.39,424.46,342.8,502.36" transform="translate(-152.66 -259.27)"/><path class="cls-2" d="M604.83,301.81S584.73,489.62,362.15,588.45" transform="translate(-152.66 -259.27)"/><path class="cls-2" d="M577.07,283s-4,69.1,53.14,102.39" transform="translate(-152.66 -259.27)"/><path class="cls-2" d="M469.69,283S459.25,412.39,591.18,456.36" transform="translate(-152.66 -259.27)"/><path class="cls-2" d="M379.49,283s-17.86,157,184.36,252.3" transform="translate(-152.66 -259.27)"/><path class="cls-2" d="M297.75,283s-17.15,196.88,252.79,320" transform="translate(-152.66 -259.27)"/><path class="cls-2" d="M563.85,535.34s-99.39,103.14-198.24,91.52" transform="translate(-152.66 -259.27)"/></svg>